<svg width="448" height="448" viewBox="0 0 448 448" fill="none" xmlns="http://www.w3.org/2000/svg">
<path fill-rule="evenodd" clip-rule="evenodd" d="M382.73 65.101C362.021 44.3817 337.418 27.9632 310.337 16.7905C283.257 5.61794 254.234 -0.0880642 224.94 0.0010274C102 0.0010274 1.92 99.581 1.87 222.001C1.81561 260.982 12.091 299.282 31.65 333.001L0 448.001L118.25 417.131C150.982 434.863 187.623 444.144 224.85 444.131H224.94C347.87 444.131 447.94 344.541 448 222.131C448.074 192.937 442.342 164.019 431.137 137.06C419.931 110.102 403.477 85.641 382.73 65.101ZM224.94 406.661H224.86C191.674 406.671 159.091 397.79 130.5 380.941L123.73 376.941L53.56 395.261L72.29 327.171L67.88 320.171C49.3239 290.793 39.4925 256.749 39.53 222.001C39.53 120.271 122.74 37.501 225.01 37.501C274.07 37.4134 321.156 56.8164 355.911 91.4422C390.666 126.068 410.245 173.081 410.34 222.141C410.3 323.881 327.13 406.661 224.94 406.661ZM326.63 268.471C321.06 265.691 293.63 252.271 288.55 250.421C283.47 248.571 279.72 247.641 276.01 253.201C272.3 258.761 261.61 271.201 258.36 274.951C255.11 278.701 251.86 279.111 246.29 276.331C240.72 273.551 222.75 267.701 201.46 248.801C184.89 234.091 173.71 215.931 170.46 210.381C167.21 204.831 170.11 201.821 172.9 199.061C175.41 196.571 178.47 192.581 181.26 189.341C184.05 186.101 184.98 183.781 186.83 180.081C188.68 176.381 187.76 173.141 186.37 170.371C184.98 167.601 173.83 140.291 169.19 129.181C164.66 118.361 160.07 119.831 156.65 119.661C153.4 119.501 149.65 119.461 145.96 119.461C143.139 119.534 140.364 120.189 137.807 121.383C135.25 122.577 132.967 124.285 131.1 126.401C125.99 131.961 111.59 145.401 111.59 172.681C111.59 199.961 131.59 226.361 134.35 230.061C137.11 233.761 173.65 289.791 229.56 313.821C239.942 318.267 250.55 322.166 261.34 325.501C274.69 329.721 286.84 329.131 296.44 327.701C307.15 326.111 329.44 314.281 334.07 301.321C338.7 288.361 338.71 277.261 337.32 274.951C335.93 272.641 332.21 271.241 326.63 268.471Z" fill="#FAFAFA"/>
</svg>
